<svg width="353" height="353" viewBox="0 0 353 353" fill="none" xmlns="http://www.w3.org/2000/svg">
<path d="M224.646 180.033C192.306 180.033 166 206.342 166 238.679C166 271.015 192.308 297.325 224.646 297.325C256.984 297.325 283.292 271.015 283.292 238.679C283.292 206.342 256.984 180.033 224.646 180.033ZM224.646 284.293C199.497 284.293 179.031 263.832 179.031 238.679C179.031 213.526 199.497 193.064 224.646 193.064C249.795 193.064 270.261 213.526 270.261 238.679C270.261 263.832 249.793 284.293 224.646 284.293Z" fill="#E1BB00"/>
<path d="M322.39 232.162H296.325C292.723 232.162 289.809 235.081 289.809 238.679C289.809 242.277 292.723 245.195 296.325 245.195H322.39C325.992 245.195 328.907 242.277 328.907 238.679C328.907 235.081 325.992 232.162 322.39 232.162Z" fill="#E1BB00"/>
<path d="M223.526 303.841C219.924 303.841 217.009 306.76 217.009 310.358V336.423C217.009 340.021 219.924 342.939 223.526 342.939C227.128 342.939 230.042 340.021 230.042 336.423V310.358C230.042 306.76 227.128 303.841 223.526 303.841Z" fill="#E1BB00"/>
<path d="M281.382 286.203C278.837 283.657 274.714 283.657 272.168 286.203C269.623 288.745 269.623 292.871 272.168 295.417L290.596 313.848C291.868 315.12 293.537 315.758 295.203 315.758C296.87 315.758 298.538 315.122 299.81 313.848C302.356 311.307 302.356 307.18 299.81 304.635L281.382 286.203Z" fill="#E1BB00"/>
<path d="M290.598 168.909L272.17 187.341C269.625 189.886 269.625 194.013 272.17 196.555C273.442 197.827 275.111 198.464 276.777 198.464C278.444 198.464 280.112 197.828 281.384 196.555L299.812 178.123C302.358 175.578 302.358 171.451 299.812 168.909C297.266 166.364 293.142 166.364 290.598 168.909Z" fill="#E1BB00"/>
<path d="M81.646 140.292C91.9546 140.292 102.091 137.578 110.976 132.443C112.987 131.279 114.227 129.128 114.227 126.802C114.227 124.476 112.987 122.325 110.976 121.161C96.9069 113.021 88.1627 97.8828 88.1627 81.646C88.1627 65.4093 96.9069 50.2708 110.976 42.1314C112.987 40.9673 114.227 38.8164 114.227 36.4901C114.227 34.1638 112.987 32.0129 110.976 30.8488C102.093 25.7137 91.9546 23 81.646 23C49.3077 22.9982 23 49.3096 23 81.646C23 113.982 49.3077 140.292 81.646 140.292ZM81.646 36.0314C86.0812 36.0314 90.478 36.6765 94.6921 37.9301C82.4172 48.9459 75.1294 64.8391 75.1294 81.6442C75.1294 98.4493 82.4154 114.344 94.6921 125.358C90.4798 126.612 86.0812 127.257 81.646 127.257C56.4969 127.257 36.0314 106.795 36.0314 81.6424C36.0314 56.4896 56.4969 36.0314 81.646 36.0314Z" fill="#0D3777"/>
<path d="M95.4687 185.114C92.9231 182.568 88.8004 182.568 86.2548 185.114L81.646 189.722L77.0409 185.117C74.4953 182.572 70.3726 182.572 67.827 185.117C65.2814 187.663 65.2814 191.785 67.827 194.331L72.4339 198.938L67.827 203.545C65.2814 206.091 65.2814 210.217 67.827 212.759C69.0989 214.031 70.7673 214.669 72.4339 214.669C74.1005 214.669 75.769 214.033 77.0409 212.759L81.6478 208.152L86.2548 212.759C87.5267 214.031 89.1951 214.669 90.8618 214.669C92.5284 214.669 94.1968 214.033 95.4687 212.759C98.0143 210.213 98.0143 206.091 95.4687 203.545L90.8599 198.936L95.4687 194.327C98.0143 191.784 98.0143 187.655 95.4687 185.114Z" fill="#0D3777"/>
<path d="M150.628 75.1294L146.021 79.7363C143.475 82.282 143.475 86.4083 146.021 88.9503C147.293 90.2222 148.961 90.8599 150.628 90.8599C152.295 90.8599 153.963 90.224 155.235 88.9503L159.842 84.3433L164.449 88.9503C165.721 90.2222 167.389 90.8599 169.056 90.8599C170.722 90.8599 172.391 90.224 173.663 88.9503C176.208 86.4047 176.208 82.282 173.663 79.7363L169.054 75.1276L173.663 70.5188C176.208 67.9731 176.208 63.8468 173.663 61.3048C171.117 58.7592 166.995 58.7592 164.449 61.3048L159.84 65.9136L155.235 61.3085C152.689 58.7629 148.567 58.7629 146.021 61.3085C143.475 63.8541 143.475 67.9768 146.021 70.5224L150.628 75.1294Z" fill="#0D3777"/>
<path d="M323.065 10.1587C320.519 7.61309 316.396 7.61309 313.851 10.1587L8.87769 315.136C6.33207 317.681 6.33207 321.804 8.87769 324.349C10.1496 325.621 11.818 326.259 13.4846 326.259C15.1513 326.259 16.8197 325.623 18.0916 324.349L323.065 19.3745C325.61 16.8288 325.61 12.7043 323.065 10.1587Z" fill="black"/>
</svg>
