<?xml version="1.0" encoding="iso-8859-1"?>
<!-- Generator: Adobe Illustrator 19.0.0, SVG Export Plug-In . SVG Version: 6.00 Build 0)  -->
<svg version="1.1" id="Layer_1" xmlns="http://www.w3.org/2000/svg" xmlns:xlink="http://www.w3.org/1999/xlink" x="0px" y="0px"
	 viewBox="0 0 192.555 192.555" style="enable-background:new 0 0 192.555 192.555;" xml:space="preserve">
<g>
	<g>
		<path d="M126.587,185.423L126.587,185.423V64.185V42.79V8.124c2.121,1.237,3.566,3.512,3.566,6.14v3.566h7.132v-3.566
			C137.285,6.397,130.886,0,123.021,0s-14.263,6.397-14.263,14.263v3.566h7.132v-3.566c0-2.627,1.445-4.902,3.566-6.14v29.259
			l-19.99-8.567c-0.118-0.051-0.242-0.068-0.363-0.105c-0.09-0.028-0.171-0.055-0.262-0.076c-0.437-0.098-0.88-0.113-1.319-0.045
			c-0.033,0.005-0.065-0.01-0.098-0.004l-39.224,7.132l-39.224,7.132c-1.696,0.306-2.929,1.783-2.929,3.507v14.263
			c0,1.724,1.233,3.2,2.929,3.507l39.224,7.132l39.224,7.132c0.213,0.042,0.425,0.059,0.637,0.059c0.453,0,0.893-0.103,1.311-0.27
			c0.03-0.012,0.064-0.006,0.094-0.019l19.99-8.567v115.83H41.008v7.132h135.501v-7.132H126.587z M55.271,63.478l-32.092-5.837
			v-8.308l32.092-5.836V63.478z M94.495,70.609l-32.092-5.836V42.201l32.092-5.836V70.609z M119.456,61.834l-17.829,7.64V37.5
			l17.829,7.64V61.834z"/>
	</g>
</g>
<g>
</g>
<g>
</g>
<g>
</g>
<g>
</g>
<g>
</g>
<g>
</g>
<g>
</g>
<g>
</g>
<g>
</g>
<g>
</g>
<g>
</g>
<g>
</g>
<g>
</g>
<g>
</g>
<g>
</g>
</svg>
